# xmcd
#
# Track frame offsets: 
#        183
#        16393
#        34985
#        50303
#
# Disc length: 1136 seconds
#
# Revision: 1
# Processed by: cddbd v1.5.2PL0 Copyright (c) Steve Scherf et al.
# Submitted via: ExactAudioCopy v0.99pb4
#
DISCID=2a046e04
DTITLE=Ace Of Base - Cruel Summer [CD Single)
DYEAR=1998
DGENRE=Electronic - House
TTITLE0=Cruel Summer (Cutfather and Joe Edit)
TTITLE1=Cruel Summer (Big Bonus Edit)
TTITLE2=Cruel Summer (Hartmann and Langhoff Short Mix)
TTITLE3=Cruel Summer (Hartmann and Langhoff Club Mix)
EXTD=
EXTT0=
EXTT1=
EXTT2=
EXTT3=
PLAYORDER=
